HIERARCHY
ROOT SimulationBone
{
	OFFSET 0.000000 0.000000 0.000000
	CHANNELS 6 Xposition Yposition Zposition Zrotation Yrotation Xrotation 
	JOINT Hips
	{
		OFFSET 0.000000 0.000000 0.000000
		CHANNELS 6 Xposition Yposition Zposition Zrotation Yrotation Xrotation 
		JOINT RightUpLeg
		{
			OFFSET 0.103459 1.857831 10.548505
			CHANNELS 3 Zrotation Yrotation Xrotation
			JOINT RightLeg
			{
				OFFSET 43.500004 -0.000023 -0.000004
				CHANNELS 3 Zrotation Yrotation Xrotation
				JOINT RightFoot
				{
					OFFSET 42.372204 0.000019 -0.000006
					CHANNELS 3 Zrotation Yrotation Xrotation
					JOINT RightToe
					{
						OFFSET 17.300005 0.000001 -0.000002
						CHANNELS 3 Zrotation Yrotation Xrotation
						End Site
						{
							OFFSET 0.000000 0.000000 0.000000
						}
					}
				}
			}
		}
		JOINT LeftUpLeg
		{
			OFFSET 0.103461 1.857828 -10.548505
			CHANNELS 3 Zrotation Yrotation Xrotation
			JOINT LeftLeg
			{
				OFFSET 43.500046 -0.000019 0.000006
				CHANNELS 3 Zrotation Yrotation Xrotation
				JOINT LeftFoot
				{
					OFFSET 42.372261 -0.000015 0.000011
					CHANNELS 3 Zrotation Yrotation Xrotation
					JOINT LeftToe
					{
						OFFSET 17.299999 -0.000003 0.000002
						CHANNELS 3 Zrotation Yrotation Xrotation
						End Site
						{
							OFFSET 0.000000 0.000000 0.000000
						}
					}
				}
			}
		}
		JOINT Spine
		{
			OFFSET 6.901964 -2.603731 0.000000
			CHANNELS 3 Zrotation Yrotation Xrotation
			JOINT Spine1
			{
				OFFSET 12.588102 -0.000003 0.000000
				CHANNELS 3 Zrotation Yrotation Xrotation
				JOINT Spine2
				{
					OFFSET 12.343204 0.000002 0.000000
					CHANNELS 3 Zrotation Yrotation Xrotation
					JOINT Neck
					{
						OFFSET 25.832891 -0.000013 0.000001
						CHANNELS 3 Zrotation Yrotation Xrotation
						JOINT Head
						{
							OFFSET 11.766613 0.000015 -0.000000
							CHANNELS 3 Zrotation Yrotation Xrotation
							End Site
							{
								OFFSET 0.000000 0.000000 0.000000
							}
						}
					}
					JOINT RightShoulder
					{
						OFFSET 19.745911 -1.480375 6.000106
						CHANNELS 3 Zrotation Yrotation Xrotation
						JOINT RightArm
						{
							OFFSET 11.284125 -0.000012 -0.000024
							CHANNELS 3 Zrotation Yrotation Xrotation
							JOINT RightForeArm
							{
								OFFSET 33.000050 0.000007 0.000027
								CHANNELS 3 Zrotation Yrotation Xrotation
								JOINT RightHand
								{
									OFFSET 25.200005 0.000018 0.000002
									CHANNELS 3 Zrotation Yrotation Xrotation
									End Site
									{
										OFFSET 0.000000 0.000000 0.000000
									}
								}
							}
						}
					}
					JOINT LeftShoulder
					{
						OFFSET 19.746092 -1.480375 -6.000074
						CHANNELS 3 Zrotation Yrotation Xrotation
						JOINT LeftArm
						{
							OFFSET 11.284139 -0.000017 -0.000020
							CHANNELS 3 Zrotation Yrotation Xrotation
							JOINT LeftForeArm
							{
								OFFSET 33.000099 0.000021 0.000012
								CHANNELS 3 Zrotation Yrotation Xrotation
								JOINT LeftHand
								{
									OFFSET 25.199780 0.000137 0.000427
									CHANNELS 3 Zrotation Yrotation Xrotation
									End Site
									{
										OFFSET 0.000000 0.000000 0.000000
									}
								}
							}
						}
					}
				}
			}
		}
	}
}
MOTION
Frames: 12
Frame Time: 0.033333
-28.239616 0.000000 28.992138 0.000000 -82.680589 0.000000 1.709217 87.810867 -0.946282 96.293943 -0.349679 -178.659923 -165.597909 5.201705 -179.648633 -30.803040 -2.607616 -6.347733 89.912979 4.845942 2.780874 21.454555 0.003112 0.000018 159.762414 -0.162894 -167.997505 -18.701039 1.300956 0.497920 66.304314 -2.131743 -4.463376 21.454553 -0.003095 0.000000 8.065266 0.720003 -1.152729 6.103354 1.499578 -2.266229 5.785423 1.485730 -2.275243 9.219636 7.646659 12.732094 -10.058077 -13.210580 18.464264 142.725819 -72.816380 36.868692 -4.445491 52.590923 18.028295 -56.787176 -16.452748 2.111105 7.583887 -10.296441 23.310691 -176.620810 70.073930 4.768748 12.109316 -54.528597 -56.638883 -22.556601 13.649033 -1.020127 14.183132 3.908431 1.124027 
-27.910720 0.000000 32.307332 0.000000 -82.381790 0.000000 1.981720 87.837273 -0.376394 96.714014 2.144752 -177.965394 -167.855587 1.004301 177.082039 -39.035395 -2.513704 -4.392059 84.716045 3.792220 3.360377 21.454555 0.003108 0.000014 160.599290 -3.007719 -169.937962 -22.311815 1.368362 2.668706 70.203089 -3.360824 -4.045259 21.454555 -0.003091 0.000001 8.080221 1.507649 -1.266356 6.116819 3.079837 -2.452422 5.798548 3.064851 -2.470987 9.698621 6.985470 11.841559 -10.009405 -13.834849 17.591415 143.102927 -72.345883 36.520028 -3.833490 54.154056 19.554181 -53.304340 -17.106405 2.031894 8.008497 -10.704424 22.310606 -177.058406 69.731819 4.310954 9.838408 -53.491692 -54.554784 -21.730011 13.561991 -1.003482 14.459888 3.388942 1.230117 
-27.532392 0.000000 35.590375 0.000000 -82.116547 0.000000 2.119615 87.954353 0.123589 97.098336 3.775113 -176.694407 -171.893008 -2.962997 175.042162 -49.502564 -2.153857 -2.403963 77.661361 2.311296 2.095142 21.454557 0.003115 0.000015 162.023179 -4.428207 -166.858216 -24.840344 0.726409 2.054965 73.715588 -2.890934 -4.500339 21.454551 -0.003087 0.000001 8.080293 2.088061 -1.532505 6.097014 4.253593 -2.955264 5.778428 4.235545 -2.980911 10.277377 6.594252 10.430841 -10.185253 -14.350695 16.240677 140.368119 -73.081836 39.248337 -3.382054 57.173099 21.419953 -48.992803 -17.505952 1.914534 9.011092 -10.235260 20.994166 -176.198294 69.677280 5.199466 6.357074 -53.101664 -51.054889 -21.340258 13.694913 -1.006907 14.667367 2.777577 -0.291281 
-27.101397 0.000000 38.824548 0.000000 -81.887794 0.000000 2.404825 88.496460 0.532209 97.539630 4.391294 -175.022348 -177.087448 -5.700609 174.610754 -60.550419 -1.179945 -1.247034 70.213443 0.824412 -0.258362 21.454553 0.003105 0.000020 164.647147 -5.112785 -165.879094 -25.264424 0.692537 2.545124 76.290542 -3.022679 -4.197221 21.454551 -0.003093 -0.000001 8.052110 2.421028 -1.821817 6.021066 4.933096 -3.518833 5.702352 4.911654 -3.548592 10.353774 6.085795 8.251867 -10.247783 -14.455807 13.956240 135.361509 -73.537307 44.298790 -2.264005 59.458777 24.815822 -45.504086 -17.274682 1.790363 9.725856 -9.112042 20.470470 -175.216605 69.471049 6.211897 3.436951 -52.749370 -46.287734 -22.868814 14.500884 -1.078714 14.959672 2.475651 -1.243393 
-26.611442 0.000000 42.001260 0.000000 -81.701182 0.000000 2.619811 88.896873 0.901803 98.119071 5.158936 -173.758290 177.691975 -7.983706 174.116261 -69.930899 0.382083 -1.806497 65.755809 -0.119756 -3.652215 21.454560 0.003107 0.000013 167.473780 -6.199396 -165.969157 -25.170377 0.948362 3.346897 78.506761 -3.368330 -3.737332 21.454551 -0.003098 -0.000001 8.160970 2.792399 -1.889161 6.226550 5.681942 -3.630160 5.907455 5.659794 -3.664455 9.307988 5.363799 5.419011 -10.235649 -14.384585 10.930438 132.271394 -73.436705 47.441278 -1.946856 60.016988 28.089436 -43.907062 -16.518961 1.693339 9.203577 -7.271440 22.727764 -174.882090 69.003625 6.552167 -0.156251 -51.619636 -41.501233 -25.150341 15.113505 -1.151724 15.124651 3.545205 -0.435774 
-26.060662 0.000000 45.120577 0.000000 -81.557527 0.000000 2.500142 88.924568 1.054386 98.764706 5.894990 -173.515502 173.315244 -9.086197 174.678782 -76.789256 0.755627 -3.610255 68.291735 0.978388 -4.455944 21.454555 0.003105 0.000022 169.588174 -7.224789 -166.515900 -26.095795 1.063327 3.838361 80.856654 -3.495876 -3.248659 21.454553 -0.003097 -0.000001 8.367734 3.094448 -1.736863 6.641922 6.283086 -3.298453 6.322342 6.262932 -3.336424 8.891305 4.270085 2.526885 -11.274294 -14.022917 7.803080 131.959938 -72.932214 47.800389 -1.377125 59.520215 31.742942 -43.439938 -16.337599 1.667946 7.531901 -6.009064 24.951058 -176.392805 68.442614 4.979645 -3.896117 -49.824102 -37.476766 -27.466279 15.737439 -1.230124 13.807648 5.400200 1.877956 
-25.456512 0.000000 48.180011 0.000000 -81.453727 0.000000 2.339078 89.002312 1.050510 99.194197 6.249134 -173.872693 168.958922 -9.521496 175.349124 -81.313259 0.801644 -4.784267 70.494635 1.906280 -4.457496 21.454555 0.003108 0.000014 171.766239 -7.809298 -167.193755 -26.572182 1.086104 3.955261 82.889216 -3.401256 -2.817504 21.454553 -0.003091 -0.000000 8.519423 3.248901 -1.552296 6.953552 6.584870 -2.911505 6.633635 6.567028 -2.951343 9.008650 3.277826 -0.080751 -12.060513 -13.700309 4.925783 132.603314 -73.003275 47.141904 0.535315 60.000384 33.878855 -44.288777 -16.579333 1.708449 6.484763 -5.945180 27.421410 -178.769191 67.851359 2.506160 -7.475465 -47.747978 -33.724991 -29.841414 16.716610 -1.336561 13.228784 6.439106 2.666484 
-24.805425 0.000000 51.185481 0.000000 -81.371546 0.000000 2.197010 89.229698 0.965320 99.332395 6.285419 -174.488827 164.829390 -9.511404 176.294532 -83.330562 0.702513 -5.014894 70.795232 2.255590 -3.937456 21.454555 0.003106 0.000025 174.251212 -7.950899 -168.000674 -25.997814 1.238632 3.857330 84.414745 -3.220477 -2.525745 21.454551 -0.003093 -0.000001 8.534818 3.265908 -1.386051 6.993879 6.609317 -2.576616 6.673832 6.593497 -2.616619 10.319671 2.606393 -2.373898 -13.003213 -13.475658 2.438354 133.106125 -73.147303 46.619658 4.149520 60.737457 35.868547 -45.566036 -16.600806 1.747784 5.741741 -6.573464 27.675899 -179.482905 67.365302 1.756050 -11.323308 -45.879859 -29.372641 -32.475237 17.519198 -1.441675 12.440209 7.120710 1.384727 
-24.113244 0.000000 54.144418 0.000000 -81.303758 0.000000 2.075315 89.432022 0.842451 99.388818 6.149667 -175.106960 161.335461 -9.177408 177.427961 -82.974948 0.594496 -4.833116 72.564722 2.346189 -3.413533 21.454557 0.003114 0.000013 176.961841 -7.556314 -168.351473 -24.960598 1.747344 3.347754 85.784977 -2.841851 -2.552233 21.454550 -0.003097 -0.000001 8.510266 3.205083 -1.266593 6.952378 6.480163 -2.342239 6.632352 6.465771 -2.381469 11.175357 1.397095 -3.922994 -13.140238 -12.608539 0.316651 134.826705 -73.295791 44.861560 8.093896 60.832383 38.168610 -47.076891 -16.497950 1.787099 6.107374 -7.114050 25.605373 179.905421 67.559689 1.125577 -14.779215 -44.743715 -25.171142 -35.784092 18.487481 -1.578816 12.260838 7.008451 -0.391154 
-23.385909 0.000000 57.066057 0.000000 -81.278770 0.000000 1.947335 89.530006 0.698972 99.282935 5.931562 -175.652348 158.366651 -8.801602 178.840826 -80.378131 0.294084 -4.930922 75.434132 2.332239 -4.014312 21.454562 0.003115 0.000014 179.679655 -7.025991 -169.395604 -23.495470 2.542003 3.238629 87.020537 -2.746619 -2.568841 21.454553 -0.003088 0.000000 8.429361 3.037775 -1.118444 6.800340 6.135767 -2.059607 6.480469 6.123098 -2.096757 11.807701 0.423469 -5.188319 -13.012123 -11.747072 -1.481667 136.030307 -73.681116 43.608118 11.768144 60.574216 40.603890 -48.361049 -16.297757 1.814061 6.291132 -7.546004 24.072076 179.588172 68.018391 0.806746 -17.459900 -44.163187 -21.386420 -39.730394 19.372324 -1.735792 11.768146 7.608495 -2.177383 
-22.620990 0.000000 59.962430 0.000000 -81.332336 0.000000 1.832044 89.637550 0.554538 98.889000 5.218124 -176.460771 156.027940 -8.236404 179.807803 -75.254601 -0.445345 -5.791784 77.155866 3.016359 -4.081046 21.454557 0.003107 0.000018 -177.929747 -6.082002 -170.717764 -22.050673 2.998415 3.250972 88.167565 -2.702804 -2.428390 21.454551 -0.003092 0.000001 8.284987 2.664262 -0.858720 6.527447 5.372532 -1.567863 6.207965 5.362822 -1.600360 12.164567 -0.231802 -6.125470 -12.934293 -10.664160 -2.938236 136.583279 -74.387098 42.989129 14.893233 60.047553 42.670087 -49.564473 -16.059423 1.836763 6.345098 -7.922500 24.604780 179.751905 68.411236 0.985039 -19.104580 -43.918362 -18.158147 -44.535907 20.135971 -1.921595 11.501239 8.421934 -4.180341 
-21.813642 0.000000 62.847322 0.000000 -81.440104 0.000000 1.708560 89.600929 0.430309 98.304908 4.423567 -177.471060 154.455740 -7.827297 -179.638005 -67.866331 -1.452974 -6.804533 78.561888 3.848926 -3.987368 21.454560 0.003108 0.000018 -176.372191 -4.986601 -171.774135 -21.792149 3.087465 3.118229 89.685206 -2.516711 -2.089940 21.454555 -0.003098 -0.000001 8.119629 2.211420 -0.518827 6.213205 4.447401 -0.919249 5.894110 4.441641 -0.946162 12.271908 -1.043921 -6.833410 -13.109474 -9.337339 -4.236094 139.021629 -74.667717 40.491977 17.196821 58.513589 43.784118 -50.767915 -15.882321 1.864279 6.157814 -8.067422 25.691687 179.508805 68.984221 0.746002 -20.135034 -43.866244 -15.483409 -49.319027 20.600050 -2.102258 10.950225 9.684959 -6.640383 
